<svg xmlns="http://www.w3.org/2000/svg" xmlns:xlink="http://www.w3.org/1999/xlink" version="1.1" x="0px" y="0px" viewBox="0 0 100 125" enable-background="new 0 0 100 100" xml:space="preserve"><g><g><path fill="#000000" d="M49.503,26.846L0,43.762l49.503,16.916v2.291l-25.108-8.578v13.262c0,0,16.229,10.125,25.119,10.125    c5.9,0,14.923-4.398,20.392-7.397c-0.202-0.211-0.329-0.496-0.329-0.812c0-0.439,0.247-0.819,0.606-1.018V54.387L50.968,44.258    c-0.274-0.145-0.379-0.483-0.235-0.757c0.146-0.274,0.483-0.378,0.758-0.234l19.404,10.229c0.234,0.066,0.408,0.273,0.408,0.529    v14.525c0.278,0.152,0.485,0.413,0.566,0.729c1.699-0.975,2.742-1.627,2.742-1.627V54.391l24.395-8.336v-2.292L49.503,26.846z"/><path fill="#000000" d="M72.928,70.848c-0.17-0.312-0.525-0.873-1.029-1.137c-0.071,0.577-0.559,1.023-1.154,1.023    c-0.283,0-0.54-0.104-0.742-0.271c-0.411,0.801-0.025,1.729-0.025,1.729s2.695,6.873,5.469,9.447    c2.771,2.572,6.492,3.643,6.492,3.643l2.006-2.288c0,0-3.156-1.815-5.93-4.39C75.241,76.029,74.172,73.145,72.928,70.848z"/></g></g></svg>
